<svg xmlns="http://www.w3.org/2000/svg" width="21" height="28" viewBox="0 0 21 28" fill="none">
                                <path d="M1.73104 8.75H18.6842L17.6706 24.974C17.6243 25.7145 17.2974 26.4095 16.7566 26.9175C16.2158 27.4255 15.5018 27.7083 14.7598 27.7083H5.65687C4.91491 27.7083 4.20084 27.4255 3.66005 26.9175C3.11927 26.4095 2.79241 25.7145 2.74604 24.974L1.73104 8.75ZM20.4167 4.375V7.29167H0V4.375H4.375V2.91667C4.375 2.14312 4.68229 1.40125 5.22927 0.854272C5.77625 0.307291 6.51812 0 7.29167 0H13.125C13.8985 0 14.6404 0.307291 15.1874 0.854272C15.7344 1.40125 16.0417 2.14312 16.0417 2.91667V4.375H20.4167ZM7.29167 4.375H13.125V2.91667H7.29167V4.375Z" fill="#CCCCCC"/>
                            </svg>